<svg xmlns="http://www.w3.org/2000/svg" width="612" height="408" viewBox="0 0 612 408">
<g>
<path d="M 216.37 250.75 C216.00,251.27 215.73,251.75 215.58,252.13 C211.56,252.68 199.97,252.98 177.15,253.17 C160.18,253.31 145.36,253.27 139.50,253.08 C139.48,252.82 139.42,252.50 139.32,252.12 C138.75,249.94 140.66,245.95 146.30,237.50 C148.50,234.20 151.99,228.10 154.06,223.95 C156.12,219.80 158.53,215.81 159.41,215.08 C160.28,214.35 161.00,212.97 161.00,212.01 C161.00,211.05 161.81,209.20 162.79,207.88 C163.77,206.57 165.17,204.15 165.88,202.50 C166.60,200.85 169.10,196.57 171.45,193.00 C173.80,189.43 177.37,183.57 179.40,180.00 C181.42,176.43 183.48,172.82 183.97,172.00 C184.83,170.56 188.03,164.91 194.50,153.44 C196.15,150.52 199.15,145.03 201.17,141.25 C203.18,137.48 205.54,133.79 206.42,133.07 C207.29,132.35 208.00,131.23 208.00,130.58 C208.00,129.93 209.98,126.38 212.41,122.69 C214.84,119.00 218.32,112.98 220.16,109.33 C222.00,105.67 224.75,101.34 226.28,99.70 C227.34,98.57 228.15,97.48 228.47,96.82 L 266.00 96.91 C283.14,96.95 297.83,97.20 303.64,97.52 C303.50,97.81 303.42,98.15 303.40,98.51 C303.31,100.30 302.23,102.59 298.41,109.12 C297.81,110.15 296.64,111.78 295.80,112.74 C294.96,113.71 294.00,115.63 293.67,117.02 C293.35,118.41 292.26,120.43 291.26,121.52 C290.26,122.61 288.16,125.97 286.61,129.00 C285.05,132.02 283.22,135.18 282.54,136.00 C281.86,136.82 279.41,140.98 277.09,145.23 C274.78,149.48 272.46,153.22 271.94,153.54 C270.61,154.36 267.91,159.76 267.39,162.62 C267.16,163.93 267.14,165.00 267.36,165.00 C267.48,165.00 268.54,163.34 270.11,160.74 C268.99,162.66 267.86,164.61 266.72,166.56 C266.92,166.00 266.47,166.22 265.37,166.80 C264.31,167.37 261.75,171.20 259.70,175.30 C257.64,179.41 253.94,185.84 251.48,189.59 C249.02,193.34 247.00,197.29 247.00,198.37 C247.00,199.11 246.95,199.70 247.11,199.77 C247.24,199.82 247.49,199.56 247.99,198.80 C246.98,200.55 245.98,202.27 244.98,203.98 C245.56,202.72 245.60,202.00 245.05,202.00 C244.42,202.00 243.25,203.54 242.46,205.43 C241.68,207.32 240.66,209.09 240.21,209.37 C239.76,209.65 238.12,212.38 236.58,215.44 C235.03,218.50 233.44,221.00 233.04,221.00 C232.38,221.00 230.25,224.85 230.28,226.00 C230.31,227.24 225.99,234.76 224.57,235.94 C223.71,236.66 223.00,238.06 223.00,239.06 C223.00,240.06 222.50,241.19 221.90,241.56 C221.29,241.94 220.16,243.65 219.39,245.37 C218.62,247.09 217.26,249.51 216.37,250.75 ZM 125.61 226.23 C125.00,226.64 124.16,226.98 123.74,226.98 C122.71,227.01 117.06,217.91 113.49,210.50 C111.90,207.20 109.86,203.60 108.94,202.50 C108.03,201.40 106.05,198.02 104.53,195.00 C101.47,188.89 101.37,188.70 96.98,181.15 C95.27,178.20 94.08,175.24 94.34,174.56 C94.69,173.64 102.41,173.15 124.55,172.64 C140.91,172.27 154.54,172.20 154.84,172.50 C155.75,173.42 152.91,180.27 149.87,184.45 C148.29,186.62 147.00,188.95 147.00,189.63 C147.00,190.30 145.31,193.64 143.25,197.04 C141.19,200.43 137.79,206.42 135.70,210.33 C133.62,214.24 131.54,217.68 131.09,217.97 C130.65,218.26 129.48,220.07 128.50,222.00 C127.52,223.93 126.22,225.83 125.61,226.23 ZM 224.04 239.99 C219.93,247.07 217.39,251.42 217.23,251.67 C217.17,251.76 216.98,251.86 216.64,251.94 C217.83,250.28 220.14,246.55 224.04,239.99 ZM 226.35 96.82 C225.33,97.80 223.99,99.65 222.14,102.59 L 225.50 96.82 L 226.35 96.82 ZM 306.24 97.77 C306.29,97.79 306.31,97.81 306.31,97.82 C306.20,98.28 301.18,107.17 295.15,117.58 C291.00,124.74 285.31,134.54 278.88,145.62 C283.22,138.11 289.09,127.95 293.95,119.60 C300.29,108.70 305.61,99.24 306.24,97.77 ZM 194.81 149.80 C192.36,154.06 189.89,158.35 187.50,162.50 C164.35,202.73 151.56,224.93 144.62,237.26 C146.45,233.93 148.53,230.25 150.74,226.40 C169.67,193.46 184.10,168.38 194.81,149.80 ZM 136.83 252.90 C136.81,252.88 136.80,252.84 136.80,252.78 C136.82,252.83 136.84,252.88 136.88,252.91 C136.86,252.91 136.84,252.90 136.83,252.90 Z" fill="rgba(51,121,253,1)"/>
<path d="M 466.17 236.18 C467.09,233.89 500.31,175.93 500.90,175.56 C501.55,175.16 535.12,233.01 535.82,235.74 C536.08,236.73 528.73,237.00 500.99,237.00 C481.65,237.00 465.98,236.63 466.17,236.18 Z" fill="rgba(52,170,84,1)"/>
<path d="M 122.08 228.75 C114.95,217.35 91.05,173.31 91.44,172.30 C92.21,170.30 156.83,170.40 157.60,172.41 C158.22,174.03 126.03,230.99 124.49,230.99 C123.94,231.00 122.85,229.99 122.08,228.75 ZM 125.61 226.23 C126.22,225.83 127.52,223.93 128.50,222.00 C129.48,220.07 130.65,218.26 131.09,217.97 C131.54,217.68 133.62,214.24 135.70,210.33 C137.79,206.42 141.19,200.43 143.25,197.04 C145.31,193.64 147.00,190.30 147.00,189.63 C147.00,188.95 148.29,186.62 149.87,184.45 C152.91,180.27 155.75,173.42 154.84,172.50 C154.54,172.20 140.91,172.27 124.55,172.64 C102.41,173.15 94.69,173.64 94.34,174.56 C94.08,175.24 95.27,178.20 96.98,181.15 C101.37,188.70 101.47,188.89 104.53,195.00 C106.05,198.02 108.03,201.40 108.94,202.50 C109.86,203.60 111.90,207.20 113.49,210.50 C117.06,217.91 122.71,227.01 123.74,226.98 C124.16,226.98 125.00,226.64 125.61,226.23 ZM 137.18 253.13 C137.08,253.07 136.98,253.02 136.90,252.94 C135.95,252.01 138.69,247.30 187.50,162.50 C198.89,142.70 212.05,119.83 216.74,111.67 C224.43,98.28 227.11,94.78 228.57,96.24 C228.84,96.51 227.81,98.06 226.28,99.70 C224.75,101.34 222.00,105.67 220.16,109.33 C218.32,112.98 214.84,119.00 212.41,122.69 C209.98,126.38 208.00,129.93 208.00,130.58 C208.00,131.23 207.29,132.35 206.42,133.07 C205.54,133.79 203.18,137.48 201.17,141.25 C199.15,145.03 196.15,150.52 194.50,153.44 C188.03,164.91 184.83,170.56 183.97,172.00 C183.48,172.82 181.42,176.43 179.40,180.00 C177.37,183.57 173.80,189.43 171.45,193.00 C169.10,196.57 166.60,200.85 165.88,202.50 C165.17,204.15 163.77,206.57 162.79,207.88 C161.81,209.20 161.00,211.05 161.00,212.01 C161.00,212.97 160.28,214.35 159.41,215.08 C158.53,215.81 156.12,219.80 154.06,223.95 C151.99,228.10 148.50,234.20 146.30,237.50 C140.66,245.95 138.75,249.94 139.32,252.12 C139.85,254.16 139.25,254.44 137.18,253.13 ZM 267.39 162.62 C267.91,159.76 270.61,154.36 271.94,153.54 C272.46,153.22 274.78,149.48 277.09,145.23 C279.41,140.98 281.86,136.82 282.54,136.00 C283.22,135.18 285.05,132.02 286.61,129.00 C288.16,125.97 290.26,122.61 291.26,121.52 C292.26,120.43 293.35,118.41 293.67,117.02 C294.00,115.63 294.96,113.71 295.80,112.74 C296.64,111.78 297.81,110.15 298.41,109.12 C302.23,102.59 303.31,100.30 303.40,98.51 C303.45,97.41 304.17,96.50 305.00,96.50 C305.83,96.50 306.41,97.00 306.30,97.60 C306.19,98.21 300.63,108.11 293.95,119.60 C287.27,131.10 278.64,146.01 274.78,152.75 C270.92,159.49 267.58,165.00 267.36,165.00 C267.14,165.00 267.16,163.93 267.39,162.62 ZM 216.37 250.75 C217.26,249.51 218.62,247.09 219.39,245.37 C220.16,243.65 221.29,241.94 221.90,241.56 C222.50,241.19 223.00,240.06 223.00,239.06 C223.00,238.06 223.71,236.66 224.57,235.94 C225.99,234.76 230.31,227.24 230.28,226.00 C230.25,224.85 232.38,221.00 233.04,221.00 C233.44,221.00 235.03,218.50 236.58,215.44 C238.12,212.38 239.76,209.65 240.21,209.37 C240.66,209.09 241.68,207.32 242.46,205.43 C243.25,203.54 244.42,202.00 245.05,202.00 C245.76,202.00 245.49,203.22 244.32,205.25 C223.36,241.46 216.44,253.00 215.68,253.00 C215.17,253.00 215.48,251.99 216.37,250.75 ZM 247.00 198.37 C247.00,197.29 249.02,193.34 251.48,189.59 C253.94,185.84 257.64,179.41 259.70,175.30 C261.75,171.20 264.31,167.37 265.37,166.80 C267.25,165.80 267.25,165.87 265.29,169.13 C264.17,170.98 259.76,178.57 255.49,186.00 C249.11,197.07 247.51,199.93 247.11,199.77 C246.95,199.70 247.00,199.11 247.00,198.37 Z" fill="rgba(60,119,236,1)"/>
<path d="M 208.00 309.54 C208.00,307.92 225.52,277.21 274.48,193.00 C292.54,161.93 312.25,127.95 318.27,117.50 C324.28,107.05 329.92,97.94 330.80,97.25 C332.01,96.30 341.95,96.00 372.63,96.00 C394.77,96.00 413.11,96.36 413.38,96.80 C413.65,97.24 403.18,116.03 390.11,138.55 C377.03,161.07 350.45,206.95 331.03,240.50 C311.60,274.05 294.38,303.64 292.75,306.25 L 289.79 311.00 L 248.90 311.00 C213.74,311.00 208.00,310.80 208.00,309.54 Z" fill="rgba(247,77,49,1)"/>
<path d="M 316.44 309.69 C316.16,308.97 319.16,302.78 323.10,295.94 C357.59,236.04 382.37,193.42 396.19,170.25 L 407.08 152.00 L 448.54 152.00 C471.34,152.00 490.00,152.36 490.00,152.81 C490.00,153.25 485.67,161.02 480.38,170.06 C475.09,179.10 460.85,203.82 448.74,225.00 C423.64,268.89 401.43,306.68 399.20,309.25 C397.81,310.86 394.52,311.00 357.31,311.00 C324.97,311.00 316.84,310.74 316.44,309.69 Z" fill="rgba(253,183,1,1)"/>
</g>
</svg>